<svg id="Calque_1" data-name="Calque 1" xmlns="http://www.w3.org/2000/svg" viewBox="0 0 1755 432.47"><defs><style>.cls-1{fill:#1b9bdb;}.cls-2{fill:#434345;}.cls-3{fill:#fdfefe;}</style></defs><path class="cls-1" d="M424.51,280.18c0,17.33,0,34.66,0,52,0,13.27-.22,26.53-.21,39.8a13.3,13.3,0,0,1-6.92,12.32Q392.44,399,367.51,413.71c-15.89,9.42-31.71,19-47.62,28.37-17.77,10.49-35.62,20.86-53.42,31.3-6.2,3.63-12.32,7.4-18.56,10.94a14.67,14.67,0,0,1-15.59-.05q-41.71-24.64-83.44-49.3C123.39,420,97.73,405.28,72.39,390c-5.23-3.14-11.79-5-14.74-11.29A15.88,15.88,0,0,1,56,371.86q.12-91.75,0-183.51c0-4.06.25-5.37,4.56-2.76,12.84,7.79,25.94,15.15,38.94,22.68,15.68,9.07,31.38,18.09,47,27.21,24.64,14.38,49.2,28.9,73.9,43.16,3.41,2,3.56,4.57,3.56,7.75q0,60,0,120.11c0,5.32.24,10.66,0,16-.19,3.34.93,5.76,3.59,7.41,3.47,2.15,6.92,4.56,10.72,5.93,4.56,1.64,8-2.21,11.79-3.91,4.37-2,6.34-5.24,6.32-10.55q-.33-76.56,0-153.12c0-4.81-1.7-7.64-5.68-9.92q-36-20.66-71.92-41.51c-27.36-15.93-54.64-32-82-48-9-5.24-18.16-10.23-27.21-15.39-1.12-.64-3-1-2.8-2.61.16-1.31,1.75-1.88,3-2.56,25.8-14.05,51.55-28.21,77.35-42.27q37.29-20.33,74.66-40.52a59.48,59.48,0,0,0,6.67-3.75c8.48-6.2,16.48-4.19,24.89.49Q284,79.29,314.92,95.72c23.05,12.19,45.73,25.09,68.58,37.65,9.14,5,18.3,10,27.52,14.85,1.25.66,2.85,1,3,2.46s-1.73,2.11-2.78,2.72c-14.74,8.58-29.6,17-44.34,25.54-17.86,10.41-35.64,21-53.45,31.45-5.61,3.3-11.17,6.72-16.9,9.82a6.08,6.08,0,0,0-3.52,6.71,4.34,4.34,0,0,1,0,.51c-.11,13.83.77,15.24,13,21.25a6.31,6.31,0,0,0,6.35-.42q26.34-15.39,52.7-30.75,28.11-16.41,56.24-32.8c2.14-1.25,3.16-1.77,3.13,1.76-.2,22.23-.13,44.46-.15,66.69v27Z" transform="translate(-56 -57.85)"/><path class="cls-2" d="M687.42,263.44c0-35.66.08-71.33-.09-107,0-4.57,1-6.35,5.89-6.19,10.31.33,20.64.37,30.94,0,4.94-.18,5.92,1.59,5.87,6.14-.24,20.45-.12,40.9-.11,61.35,0,6,.46,6.09,6.06,4.53,19.79-5.51,39.65-7.2,59.48-.08,15.89,5.7,25.49,17.26,30,33.1s3,32.19,3,48.37c0,22.35-.13,44.7,0,67,0,4-.81,5.88-5.32,5.76q-16-.42-32,0c-4.23.12-5.15-1.36-5.14-5.28.14-29.39-.05-58.78.11-88.17.12-21.39-12.55-28.21-30.41-27.69a80.3,80.3,0,0,0-20.6,2.93c-3.82,1.14-5.26,2.51-5.24,6.59.14,35.23,0,70.46.18,105.69,0,4.67-1.09,6.12-5.88,5.95-10.48-.38-21-.28-31.47,0-3.91.09-5.35-.85-5.33-5.06C687.49,335.41,687.42,299.43,687.42,263.44Z" transform="translate(-56 -57.85)"/><path class="cls-2" d="M948.73,298.74A80.11,80.11,0,0,1,956.32,262,70.83,70.83,0,0,1,991,226.48c24.8-11.89,50.31-12.44,75.3-1.06,22.85,10.4,37,28.36,42.58,53.16,4.56,20.4,3,40.22-6.22,58.73-10.08,20.19-26.7,33.25-48.73,39.35-11.59,3.21-23.32,4.44-35.11,2.74-24.22-3.5-44.54-13.78-57.64-35.46C951.67,328.27,948.71,317.25,948.73,298.74Zm81.2-44.34c-11-.42-20.28,3.09-27.68,11.51-12.34,14-13.53,30.55-9.62,47.52,3.23,14,11.55,24.93,26.28,28.41,19.84,4.69,35.54-1.49,44.48-19.22,6.68-13.25,6.69-27.53,2.39-41.7C1060.82,264.58,1045.72,253,1029.93,254.4Z" transform="translate(-56 -57.85)"/><path class="cls-2" d="M1370.23,380c-47.35.14-81.49-33.4-81.94-79.81-.46-49.13,34-83.31,82.62-82.53,48,.76,78.82,34.18,80.12,77C1452.73,350.6,1412.89,379.52,1370.23,380Zm-2-36.8c17.4.2,28.59-7.54,35.73-22.15,3.13-6.41,3.55-13.07,3.9-19.89.73-14.14-2.21-26.72-12.83-37.26-15.85-15.72-49.16-12.9-59.77,12-5.62,13.22-6.08,26.63-2,40.62S1352.06,344.45,1368.24,343.18Z" transform="translate(-56 -57.85)"/><path class="cls-2" d="M1130.19,308.94q0-29.47,0-58.94c0-4.84.15-9.68.16-14.52,0-3,.92-4.7,4.24-5.82,25.32-8.53,51.31-13,78-11.86,14.68.64,29.22,3.37,41,13.54a47,47,0,0,1,14.26,22.51c5.6,18.33,3.11,37.12,3.45,55.73.36,20.26-.15,40.54.2,60.8.09,5.14-1.36,6.3-6.24,6.12-10.14-.39-20.31-.43-30.44,0-5.22.22-6.15-1.65-6.12-6.39.21-29.52.1-59.05.13-88.57,0-8.42-2.28-15.77-9.21-21.2-5.89-4.63-12.95-5.26-19.84-5-7.08.28-14.25.85-21.21,2.82-4.25,1.2-6.46,2.67-6.41,7.87.31,34.35.19,68.7.21,103,0,7.31,0,7.29-7,7.28-10,0-20-.07-29.94,0-3.53,0-5.19-.82-5.14-4.95.21-20.84.1-41.68.1-62.53Z" transform="translate(-56 -57.85)"/><path class="cls-2" d="M665.24,249.3c0,5.16,0,10.31,0,15.47,0,1.16.39,2.65-.93,3.24s-2-1-2.88-1.66c-17.53-12.05-36.34-15.49-56.31-7.35-13.89,5.66-21,17.17-23.29,31.51-2.16,13.6.63,26.64,9.4,37.21,7.34,8.85,17.68,13.56,29.42,14.62,15.4,1.39,29.48-2,42.12-11.09,2.08-1.49,4-2.25,4,1.94-.18,10.76-.13,21.54,0,32.3,0,2.55-1.11,3.63-3.14,4.66-21.06,10.63-43,12.25-65.81,7-14.58-3.37-27.38-9.81-37.66-20.61-10.71-11.25-17-24.68-19.65-40.19a100.49,100.49,0,0,1,1.83-42.16,71.27,71.27,0,0,1,15.95-29.92C571.05,229.83,587.14,222,606,218.9s36.75-.9,54,7.23c3.61,1.71,5.66,3.88,5.34,8.23C665,239.32,665.24,244.32,665.24,249.3Z" transform="translate(-56 -57.85)"/><path class="cls-1" d="M1565,410.76c0,22.49-.08,45,.07,67.47,0,4.83-.49,7.3-6.49,8.43-16.29,3.08-32.62,4.94-49,2.64-21-2.95-37.8-12.51-44.57-34.12-5.87-18.74-4.06-37,7-53.42,6.23-9.18,15.41-15.1,26.46-18.34a69.54,69.54,0,0,1,30.36-1.82c.34,0,.69,0,1,.1,6.84,1.12,6.81,1.12,6.78-6.26,0-11.67,0-23.35-.14-35,0-3.27.87-4.59,4.37-4.46a183.77,183.77,0,0,0,19.07-.09c4.4-.28,5.1,1.57,5.08,5.36C1565,364.41,1565,387.58,1565,410.76ZM1536.61,437h0c0-7.88,0-15.77,0-23.65,0-2.16,0-4-2.58-4.9-20-6.56-44-.78-43.12,28.65.34,11,6.36,22.62,19.56,26.43,7.85,2.26,15.38,1.45,23.09,1.45,3,0,3-2.15,3-4.32C1536.59,452.8,1536.61,444.92,1536.61,437Z" transform="translate(-56 -57.85)"/><path class="cls-2" d="M852.23,320.21c0-16.48-1-33,.23-49.43,2.17-28.7,15-46.37,46.9-51.68,15.46-2.58,30.72-1.17,46.06.32,4.1.39,6.23,1.89,6,6.72-.44,9.78-.24,19.59-.08,29.38,0,3.24-.77,4.42-4,3.16-7.47-2.87-15.45-2.89-23.21-3.3-8.37-.44-16.62.72-23.09,7.46a20.91,20.91,0,0,0-6.13,14.77c-.23,20.6-.2,41.2-.25,61.81,0,11-.09,22,0,33,0,3.08-.83,4.13-4.08,4.07q-17-.31-34.05,0c-3.73.07-4.59-1.24-4.56-4.75.16-17.17.07-34.33.07-51.5Z" transform="translate(-56 -57.85)"/><path class="cls-1" d="M1722.85,440.29c0,14.72-.07,29.44,0,44.16,0,3.91-.47,6-5.42,5.51-6-.61-12.46,1.17-18.22-.2-10.91-2.61-21.43,1.55-32.28.12-20.22-2.68-37.88-15.55-44-35.55-3.63-11.85-4.32-23.68-1.13-35.28,4.18-15.18,13.53-26.62,28.64-32.7,21.68-8.73,43-6.44,64.48,1.13,7.07,2.48,8.31,6.3,8.12,12.78-.38,13.33-.11,26.68-.11,40Zm-28.53-4.86c0-7.21-.26-14.43.1-21.62.19-3.78-1.39-5.6-4.54-6.93-8.89-3.74-24.65-.57-31.77,6.11-7.56,7.1-9.14,16.09-8.74,25.74.27,6.8,2.25,13,7.21,18.09,9.19,9.34,20.4,9,32.08,6.95,4.28-.75,6-2.67,5.76-7.24C1694,449.52,1694.32,442.46,1694.32,435.43Z" transform="translate(-56 -57.85)"/><path class="cls-1" d="M1738.6,411.69c0-23.52.09-47.05-.09-70.58,0-4.06,1.08-5.4,5.18-5.17a162.53,162.53,0,0,0,17.52,0c4.18-.21,5.63,1.09,5.57,5.46-.23,18.21-.1,36.41-.1,54.62,0,28.68-.1,57.36.11,86,0,4.61-1.36,6-5.84,5.74-5.81-.34-11.67-.26-17.5,0-3.78.15-5-1.07-4.94-4.95C1738.69,459.1,1738.6,435.4,1738.6,411.69Z" transform="translate(-56 -57.85)"/><path class="cls-1" d="M1609.3,434.42c0,16.14-.07,32.28,0,48.42,0,3.6-.64,5.23-4.86,5-6.49-.4-13,0-19.55.12-3,.07-4.25-1-4.25-4.2q.12-49.2,0-98.39c0-3.3,1-4.67,4.43-4.58,6.51.16,13,.21,19.55,0,3.62-.13,4.72,1.1,4.68,4.74-.18,16.31-.08,32.62-.08,48.94Z" transform="translate(-56 -57.85)"/><path class="cls-1" d="M1782.6,434.9c0-16.14.09-32.28-.07-48.42,0-4,.68-6.08,5.34-5.79a170.76,170.76,0,0,0,18.52,0c4.34-.2,4.6,2.1,4.59,5.44-.08,23.87,0,47.75,0,71.62,0,8.59-.12,17.18.07,25.76.06,3.12-.9,4.28-4.07,4.19-6.69-.19-13.4-.28-20.09,0-3.5.14-4.36-1.05-4.33-4.4.15-16.13.07-32.28.07-48.42Z" transform="translate(-56 -57.85)"/><path class="cls-1" d="M1810.92,350.72c-.21,8.24-6.26,13.86-14.73,13.69a14.16,14.16,0,0,1-13.59-14.94c.26-7.7,6.94-13.58,15.22-13.4C1805.56,336.23,1811.13,342.46,1810.92,350.72Z" transform="translate(-56 -57.85)"/><path class="cls-1" d="M1594.59,364.41c-8.09,0-13.79-6-13.78-14.44s5.77-13.79,14.21-14,14.11,7.48,14.15,14.47C1609.22,358.18,1602.57,364.43,1594.59,364.41Z" transform="translate(-56 -57.85)"/><path class="cls-3" d="M1029.93,254.4c15.79-1.36,30.89,10.18,35.85,26.52,4.3,14.17,4.29,28.45-2.39,41.7-8.94,17.73-24.64,23.91-44.48,19.22-14.73-3.48-23-14.4-26.28-28.41-3.91-17-2.72-33.48,9.62-47.52C1009.65,257.49,1018.93,254,1029.93,254.4Z" transform="translate(-56 -57.85)"/><path class="cls-3" d="M1368.24,343.18c-16.18,1.27-30.77-12.63-34.92-26.65s-3.67-27.4,2-40.62c10.61-24.93,43.92-27.75,59.77-12,10.62,10.54,13.56,23.12,12.83,37.26-.35,6.82-.77,13.48-3.9,19.89C1396.83,335.64,1385.64,343.38,1368.24,343.18Z" transform="translate(-56 -57.85)"/><path class="cls-3" d="M1536.61,437c0,7.89,0,15.77,0,23.66,0,2.17,0,4.31-3,4.32-7.71,0-15.24.81-23.09-1.45-13.2-3.81-19.22-15.43-19.56-26.43-.9-29.43,23.13-35.21,43.12-28.65,2.62.86,2.59,2.74,2.58,4.9-.06,7.88,0,15.77,0,23.65Z" transform="translate(-56 -57.85)"/><path class="cls-3" d="M1694.32,435.43c0,7-.3,14.09.1,21.1.27,4.57-1.48,6.49-5.76,7.24-11.68,2-22.89,2.39-32.08-6.95-5-5-6.94-11.29-7.21-18.09-.4-9.65,1.18-18.64,8.74-25.74,7.12-6.68,22.88-9.85,31.77-6.11,3.15,1.33,4.73,3.15,4.54,6.93C1694.06,421,1694.32,428.22,1694.32,435.43Z" transform="translate(-56 -57.85)"/></svg>