<svg id="Calque_1" data-name="Calque 1" xmlns="http://www.w3.org/2000/svg" viewBox="0 0 1426.86 348.53"><defs><style>.cls-1{fill:#fff;}.cls-2{fill:#434345;}</style></defs><path class="cls-1" d="M521.62,281.76q0,21.14,0,42.26c0,10.79-.18,21.57-.17,32.36a10.8,10.8,0,0,1-5.63,10q-20.26,12-40.53,23.93c-12.92,7.66-25.78,15.43-38.72,23.06-14.45,8.54-29,17-43.43,25.46-5,3-10,6-15.09,8.89a11.92,11.92,0,0,1-12.67,0q-33.93-20-67.84-40.09c-20.73-12.18-41.59-24.13-62.19-36.53-4.25-2.56-9.59-4.09-12-9.18A12.76,12.76,0,0,1,222,356.3q.11-74.6.05-149.2c0-3.3.2-4.37,3.7-2.25,10.44,6.34,21.09,12.32,31.66,18.44,12.74,7.38,25.51,14.71,38.23,22.13,20,11.69,40,23.49,60.08,35.09,2.77,1.59,2.89,3.72,2.89,6.3q0,48.82,0,97.65c0,4.33.19,8.67,0,13a6.07,6.07,0,0,0,2.92,6c2.82,1.75,5.62,3.71,8.71,4.82,3.71,1.34,6.51-1.8,9.59-3.18,3.55-1.59,5.16-4.26,5.14-8.58q-.27-62.25,0-124.49c0-3.9-1.38-6.21-4.61-8.06Q351,247.2,321.81,230.23c-22.25-12.95-44.42-26-66.66-39-7.32-4.27-14.76-8.32-22.12-12.51-.91-.52-2.44-.85-2.28-2.13.13-1.07,1.42-1.52,2.43-2.08q31.47-17.13,62.89-34.37,30.33-16.52,60.7-32.94a46.28,46.28,0,0,0,5.42-3c6.89-5,13.41-3.41,20.24.4q24.92,13.86,50.09,27.23c18.74,9.91,37.18,20.4,55.76,30.61,7.43,4.08,14.87,8.13,22.37,12.08,1,.53,2.32.79,2.4,2s-1.41,1.71-2.26,2.2c-12,7-24.07,13.79-36.05,20.77-14.52,8.46-29,17-43.46,25.57-4.56,2.69-9.08,5.46-13.73,8a4.93,4.93,0,0,0-2.86,5.46c0,.13,0,.28,0,.42-.09,11.24.63,12.38,10.59,17.27a5.1,5.1,0,0,0,5.16-.35l42.84-25q22.86-13.32,45.73-26.66c1.74-1,2.57-1.44,2.54,1.43-.16,18.08-.1,36.15-.12,54.22v22Z" transform="translate(-222.01 -101)"/><path class="cls-2" d="M735.37,211.24c0-29,.07-58-.07-87,0-3.71.83-5.16,4.79-5,8.38.27,16.78.3,25.15,0,4-.15,4.81,1.29,4.77,5-.19,16.63-.09,33.26-.09,49.88,0,4.85.38,4.95,4.93,3.69,16.09-4.48,32.23-5.86,48.36-.07,12.92,4.63,20.72,14,24.37,26.91S850,230.78,850,243.94c0,18.17-.1,36.34,0,54.51,0,3.28-.65,4.78-4.32,4.68-8.67-.22-17.35-.24-26,0-3.44.1-4.2-1.11-4.18-4.29.11-23.9,0-47.79.09-71.68.09-17.4-10.21-22.94-24.73-22.52A65.31,65.31,0,0,0,774.12,207c-3.11.93-4.28,2.05-4.27,5.36.12,28.65,0,57.29.15,85.93,0,3.8-.88,5-4.78,4.84-8.52-.31-17.06-.23-25.59,0-3.18.07-4.35-.7-4.33-4.12C735.43,269.75,735.37,240.49,735.37,211.24Z" transform="translate(-222.01 -101)"/><path class="cls-2" d="M947.82,239.94A65.22,65.22,0,0,1,954,210.06a57.59,57.59,0,0,1,28.18-28.87c20.16-9.67,40.9-10.12,61.22-.86,18.57,8.45,30.1,23,34.61,43.22,3.71,16.58,2.47,32.7-5,47.75-8.2,16.41-21.71,27-39.62,32a69.08,69.08,0,0,1-28.55,2.23c-19.69-2.84-36.21-11.2-46.86-28.82C950.21,263.94,947.81,255,947.82,239.94Zm66-36.05c-8.94-.34-16.49,2.51-22.51,9.35-10,11.42-11,24.84-7.81,38.64,2.62,11.39,9.38,20.27,21.36,23.1,16.13,3.81,28.9-1.22,36.17-15.63,5.43-10.77,5.43-22.38,1.94-33.9C1039,212.16,1026.68,202.78,1013.84,203.89Z" transform="translate(-222.01 -101)"/><path class="cls-2" d="M1290.51,306c-38.49.11-66.25-27.16-66.61-64.89-.38-39.94,27.61-67.73,67.16-67.1,39,.62,64.09,27.79,65.15,62.58C1357.59,282.1,1325.2,305.61,1290.51,306Zm-1.62-29.92c14.16.16,23.25-6.14,29-18,2.55-5.21,2.89-10.63,3.18-16.17.59-11.5-1.8-21.73-10.43-30.29-12.89-12.79-40-10.49-48.6,9.78-4.57,10.74-4.94,21.65-1.58,33S1275.74,277.1,1288.89,276.07Z" transform="translate(-222.01 -101)"/><path class="cls-2" d="M1095.35,248.23q0-24,0-47.92c0-3.94.12-7.87.13-11.81,0-2.44.75-3.81,3.45-4.72,20.58-6.94,41.72-10.58,63.4-9.65,11.94.52,23.76,2.74,33.32,11a38.2,38.2,0,0,1,11.6,18.3c4.55,14.9,2.53,30.18,2.8,45.31.3,16.47-.11,33,.17,49.43.07,4.18-1.11,5.13-5.08,5-8.24-.31-16.51-.34-24.75,0-4.24.19-5-1.33-5-5.19.17-24,.08-48,.1-72,0-6.84-1.85-12.82-7.48-17.24-4.79-3.76-10.54-4.27-16.14-4.05a74.4,74.4,0,0,0-17.24,2.3c-3.45,1-5.25,2.17-5.21,6.4.25,27.92.16,55.85.17,83.78,0,5.93,0,5.92-5.72,5.91-8.12,0-16.23-.06-24.34,0-2.88,0-4.22-.66-4.19-4,.18-16.94.09-33.89.09-50.84Z" transform="translate(-222.01 -101)"/><path class="cls-2" d="M717.34,199.74c0,4.2,0,8.39,0,12.58,0,.94.31,2.15-.75,2.63s-1.6-.83-2.35-1.34c-14.25-9.8-29.54-12.6-45.78-6-11.29,4.6-17.07,14-18.93,25.62-1.76,11.05.51,21.65,7.64,30.25,6,7.19,14.38,11,23.92,11.89,12.52,1.13,24-1.65,34.25-9,1.69-1.22,3.29-1.83,3.23,1.57-.15,8.76-.11,17.52,0,26.27,0,2.07-.9,3-2.55,3.78-17.13,8.64-35,10-53.51,5.68-11.85-2.74-22.26-8-30.62-16.76a60.71,60.71,0,0,1-16-32.67A81.64,81.64,0,0,1,617.42,220a58,58,0,0,1,13-24.33c10.38-11.72,23.47-18.09,38.78-20.61a72.68,72.68,0,0,1,43.9,5.89c2.94,1.38,4.61,3.15,4.35,6.69C717.11,191.63,717.34,195.69,717.34,199.74Z" transform="translate(-222.01 -101)"/><path class="cls-2" d="M869.37,257.39c0-13.4-.83-26.86.18-40.19,1.77-23.33,12.23-37.69,38.13-42,12.58-2.1,25-.95,37.45.26,3.33.32,5.07,1.53,4.89,5.46-.36,8-.19,15.93-.06,23.89,0,2.63-.62,3.59-3.29,2.57-6.07-2.33-12.55-2.36-18.86-2.69-6.81-.35-13.52.59-18.78,6.07a17,17,0,0,0-5,12c-.19,16.75-.17,33.51-.2,50.26,0,8.93-.08,17.87,0,26.8,0,2.51-.68,3.36-3.32,3.31q-13.83-.24-27.68,0c-3,.06-3.74-1-3.71-3.86.13-13.95.06-27.91.06-41.87Z" transform="translate(-222.01 -101)"/><path class="cls-1" d="M1448.89,331c0,18.29-.07,36.57.06,54.85,0,3.93-.4,5.94-5.28,6.86-13.25,2.5-26.52,4-39.83,2.14-17.08-2.39-30.74-10.16-36.24-27.73-4.78-15.24-3.31-30.12,5.72-43.43,5.07-7.47,12.53-12.28,21.52-14.92a56.68,56.68,0,0,1,24.68-1.48c.28,0,.56,0,.84.08,5.56.92,5.54.92,5.51-5.08,0-9.5,0-19-.11-28.48,0-2.66.71-3.73,3.55-3.62a154.29,154.29,0,0,0,15.51-.07c3.57-.23,4.14,1.27,4.12,4.35C1448.84,293.33,1448.89,312.17,1448.89,331Zm-23.11,21.36h0c0-6.41,0-12.82,0-19.23,0-1.76,0-3.28-2.09-4-16.26-5.33-35.79-.64-35.06,23.29.27,8.94,5.17,18.4,15.91,21.49,6.38,1.83,12.5,1.18,18.77,1.18,2.43,0,2.44-1.75,2.44-3.51C1425.77,365.2,1425.78,358.78,1425.78,352.37Z" transform="translate(-222.01 -101)"/><path class="cls-1" d="M1577.2,355c0,12-.06,23.93,0,35.9,0,3.18-.39,4.89-4.42,4.48-4.9-.49-10.13,1-14.8-.16-8.87-2.12-17.43,1.26-26.25.09-16.44-2.17-30.8-12.63-35.78-28.9-2.94-9.63-3.51-19.25-.91-28.68,3.39-12.34,11-21.64,23.28-26.58,17.63-7.1,34.93-5.24,52.43.91,5.75,2,6.75,5.12,6.6,10.39-.31,10.84-.09,21.7-.09,32.55Zm-23.2-3.95c0-5.86-.21-11.73.09-17.58.15-3.07-1.14-4.55-3.69-5.63-7.23-3.05-20-.46-25.83,5-6.15,5.77-7.43,13.08-7.11,20.92.22,5.53,1.83,10.61,5.86,14.71,7.48,7.59,16.59,7.3,26.08,5.65,3.48-.61,4.91-2.17,4.69-5.89C1553.76,362.52,1554,356.79,1554,351.07Z" transform="translate(-222.01 -101)"/><path class="cls-1" d="M1590,331.77c0-19.13.08-38.26-.07-57.39,0-3.3.88-4.38,4.21-4.2a132.82,132.82,0,0,0,14.25,0c3.4-.17,4.57.88,4.53,4.44-.19,14.8-.08,29.6-.08,44.4,0,23.32-.08,46.64.08,70,0,3.74-1.1,4.88-4.74,4.67-4.73-.28-9.49-.22-14.23,0-3.07.13-4-.86-4-4C1590.08,370.31,1590,351,1590,331.77Z" transform="translate(-222.01 -101)"/><path class="cls-1" d="M1484.88,350.25c0,13.12-.06,26.24,0,39.36,0,2.93-.53,4.25-4,4-5.27-.33-10.59,0-15.89.09-2.44.06-3.46-.8-3.45-3.41q.09-40,0-80c0-2.69.84-3.8,3.6-3.73,5.3.13,10.61.17,15.9,0,2.94-.1,3.84.9,3.81,3.86-.15,13.26-.07,26.52-.07,39.79Z" transform="translate(-222.01 -101)"/><path class="cls-1" d="M1625.78,350.64c0-13.12.07-26.25,0-39.37,0-3.21.54-4.94,4.34-4.71a137.37,137.37,0,0,0,15,0c3.53-.17,3.74,1.7,3.73,4.42-.07,19.41,0,38.82,0,58.23,0,7-.09,14,.06,20.94.05,2.54-.73,3.48-3.31,3.41-5.44-.15-10.89-.23-16.33,0-2.85.12-3.55-.85-3.52-3.57.12-13.12,0-26.25,0-39.37Z" transform="translate(-222.01 -101)"/><path class="cls-1" d="M1648.81,282.2c-.17,6.69-5.09,11.27-12,11.13a11.51,11.51,0,0,1-11-12.15c.21-6.26,5.64-11,12.37-10.9C1644.45,270.42,1649,275.48,1648.81,282.2Z" transform="translate(-222.01 -101)"/><path class="cls-1" d="M1472.92,293.33c-6.58,0-11.21-4.88-11.2-11.74s4.69-11.22,11.55-11.37,11.47,6.07,11.51,11.76C1484.82,288.26,1479.41,293.35,1472.92,293.33Z" transform="translate(-222.01 -101)"/><path class="cls-1" d="M642.7,412.92a1.29,1.29,0,0,1,.33-.74,1.06,1.06,0,0,1,.82-.31h8.31a1.11,1.11,0,0,1,1.15.91l6.54,21.81,6.58-21.81a1.23,1.23,0,0,1,1.23-.91h8.21a1.16,1.16,0,0,1,.78.3,1.08,1.08,0,0,1,.4.75q.84,8.46,1.72,16.79t1.72,16.78v.12c0,.62-.36.93-1.06.93h-6.8a1,1,0,0,1-1.15-1.05l-2.09-18.57L664,446.61a1.3,1.3,0,0,1-.35.57.8.8,0,0,1-.59.34h-6.31a.91.91,0,0,1-.62-.33,1.08,1.08,0,0,1-.35-.58L650.36,428l-2.09,18.53c0,.7-.43,1.05-1.18,1.05h-6.8a.92.92,0,0,1-1-1.05Z" transform="translate(-222.01 -101)"/><path class="cls-1" d="M730.19,412.92a1.15,1.15,0,0,1,.26-.74,1,1,0,0,1,.8-.31h7.06a1.3,1.3,0,0,1,.77.29.89.89,0,0,1,.41.76v33.57c0,.7-.4,1.05-1.18,1.05h-7.06a.93.93,0,0,1-1.06-1.05Z" transform="translate(-222.01 -101)"/><path class="cls-1" d="M821.36,429.74a17.79,17.79,0,0,1-.65,4.84,17.21,17.21,0,0,1-1.85,4.28,17.81,17.81,0,0,1-6.57,6.33,18.71,18.71,0,0,1-4.38,1.74,19.25,19.25,0,0,1-4.88.61H791.19a1.49,1.49,0,0,1-.77-.19c-.23-.13-.34-.4-.34-.82V413a1.14,1.14,0,0,1,.28-.81,1,1,0,0,1,.83-.32H803a18.61,18.61,0,0,1,4.86.63,18.14,18.14,0,0,1,4.38,1.78A18.54,18.54,0,0,1,816,417a16.9,16.9,0,0,1,2.87,3.6,18.31,18.31,0,0,1,1.85,4.3A17.5,17.5,0,0,1,821.36,429.74Zm-22-9.27v18.47h2l1.08,0,1-.09a9.69,9.69,0,0,0,3.37-.87,9.14,9.14,0,0,0,2.72-1.93,8.5,8.5,0,0,0,1.83-2.8,9.13,9.13,0,0,0,.66-3.5,8.86,8.86,0,0,0-.76-3.71,9,9,0,0,0-2.05-2.93,9.22,9.22,0,0,0-3-1.93,10.18,10.18,0,0,0-3.71-.68Z" transform="translate(-222.01 -101)"/><path class="cls-1" d="M901.77,429.74a17.79,17.79,0,0,1-.65,4.84,17.21,17.21,0,0,1-1.85,4.28,17.81,17.81,0,0,1-6.57,6.33,18.79,18.79,0,0,1-4.39,1.74,19.17,19.17,0,0,1-4.87.61H871.59a1.48,1.48,0,0,1-.76-.19c-.23-.13-.34-.4-.34-.82V413a1.14,1.14,0,0,1,.28-.81,1,1,0,0,1,.82-.32h11.85a18.61,18.61,0,0,1,4.86.63,18.06,18.06,0,0,1,4.37,1.78,18.32,18.32,0,0,1,3.72,2.76,17.21,17.21,0,0,1,2.87,3.6,18.31,18.31,0,0,1,1.85,4.3A17.5,17.5,0,0,1,901.77,429.74Zm-22-9.27v18.47h2c.37,0,.73,0,1.09,0l1.05-.09a9.8,9.8,0,0,0,3.37-.87A9.14,9.14,0,0,0,890,436a8.5,8.5,0,0,0,1.83-2.8,9.13,9.13,0,0,0,.66-3.5,8.86,8.86,0,0,0-.76-3.71,9.11,9.11,0,0,0-2-2.93,9.33,9.33,0,0,0-3-1.93,10.18,10.18,0,0,0-3.71-.68Z" transform="translate(-222.01 -101)"/><path class="cls-1" d="M950.44,412.9a1,1,0,0,1,.29-.74,1,1,0,0,1,.79-.32h7.11a1.16,1.16,0,0,1,.75.29,1.06,1.06,0,0,1,.36.77V439H973a1,1,0,0,1,1.06,1.08v6.32a1.16,1.16,0,0,1-.28.74,1,1,0,0,1-.78.36H951.5a.93.93,0,0,1-1.06-1.05Z" transform="translate(-222.01 -101)"/><path class="cls-1" d="M1022.85,413a1.16,1.16,0,0,1,.27-.8,1,1,0,0,1,.78-.3h23.84a1,1,0,0,1,.81.31,1.16,1.16,0,0,1,.29.84V419a1.22,1.22,0,0,1-.29.78,1,1,0,0,1-.84.37h-15.57v6h12a1.28,1.28,0,0,1,.75.21.84.84,0,0,1,.3.72v5.19a1,1,0,0,1-.26.65,1,1,0,0,1-.77.31h-12v6.15h16.15a1,1,0,0,1,1.08,1.1v6a.59.59,0,0,1-.19.43c-.07.45-.39.67-1,.67H1023.9a1.13,1.13,0,0,1-.77-.25,1,1,0,0,1-.28-.78Z" transform="translate(-222.01 -101)"/><path class="cls-1" d="M1108.37,447c-.16-.27-.31-.55-.46-.84s-.27-.58-.38-.87q-3.1-8.16-6.17-16.19T1095.18,413a.78.78,0,0,0,0-.22.43.43,0,0,1,0-.19c0-.45.3-.67.89-.67h7.73a1.24,1.24,0,0,1,1.25.91l7.35,21.89,6.8-21.89a1.3,1.3,0,0,1,1.33-.91h7.8a1.2,1.2,0,0,1,.78.2.68.68,0,0,1,.23.54,1.47,1.47,0,0,1,0,.27V413L1125,425.2l3.22,9.44,7.78-21.86a1.3,1.3,0,0,1,1.33-.91h7.56a1.2,1.2,0,0,1,.78.2.68.68,0,0,1,.23.54,1.47,1.47,0,0,1,0,.27V413q-1.63,4.23-3.34,8.43c-1.14,2.8-2.28,5.61-3.43,8.41s-2.28,5.61-3.41,8.42-2.23,5.62-3.3,8.42a1.67,1.67,0,0,1-.43.59,1.17,1.17,0,0,1-.82.32h-5.88a1.38,1.38,0,0,1-.81-.2,1.2,1.2,0,0,1-.4-.54l-3.79-10c-.55,1.46-1.08,2.89-1.61,4.29s-1.06,2.83-1.59,4.29c-.08.23-.17.46-.27.71a4.28,4.28,0,0,1-.38.7,2.31,2.31,0,0,1-.49.54,1,1,0,0,1-.63.21h-5.89A1,1,0,0,1,1108.37,447Z" transform="translate(-222.01 -101)"/><path class="cls-1" d="M1199,412.8a.77.77,0,0,1,.16-.31,2,2,0,0,1,.33-.31,1.6,1.6,0,0,1,.4-.23,1.29,1.29,0,0,1,.41-.08h6.15a1,1,0,0,1,.7.25,3.4,3.4,0,0,1,.43.44l.6,1.37,12.61,32.53a.7.7,0,0,1-.07.78,1.16,1.16,0,0,1-.91.3h-6.9a1.57,1.57,0,0,1-.85-.2,1.41,1.41,0,0,1-.47-.69c-.32-.81-.63-1.63-.93-2.43s-.61-1.63-.92-2.44H1197l-.93,2.44c-.31.8-.62,1.62-.92,2.43a1.2,1.2,0,0,1-1.23.89h-7.09a1.16,1.16,0,0,1-.75-.24.57.57,0,0,1-.11-.72Zm4.38,10.29q-.46,1.21-.93,2.64c-.31.94-.62,1.9-.92,2.86s-.61,1.91-.93,2.84-.62,1.82-.92,2.64H1207Z" transform="translate(-222.01 -101)"/><path class="cls-1" d="M1268.83,413a1.15,1.15,0,0,1,.26-.8,1,1,0,0,1,.79-.3h15.52a11.79,11.79,0,0,1,4.64.92,12.25,12.25,0,0,1,3.77,2.51,11.75,11.75,0,0,1,2.53,3.71,11.2,11.2,0,0,1,.93,4.53,10.92,10.92,0,0,1-.44,3.11,11.72,11.72,0,0,1-1.24,2.77,12.06,12.06,0,0,1-1.89,2.33,12.64,12.64,0,0,1-2.39,1.79l6.18,11.63c.11.22.25.48.43.79a1.69,1.69,0,0,1,.26.79.71.71,0,0,1-.25.59,1.1,1.1,0,0,1-.68.2H1289a1.21,1.21,0,0,1-.73-.24,1.13,1.13,0,0,1-.42-.65l-5.84-11h-3.89v10.84c0,.69-.37,1-1.1,1h-7.14a1.13,1.13,0,0,1-.77-.25,1,1,0,0,1-.28-.78Zm18.81,10.67a4.08,4.08,0,0,0-.27-1.44,4.52,4.52,0,0,0-.74-1.32,4.33,4.33,0,0,0-1.16-1,3.9,3.9,0,0,0-1.49-.53l-1.26-.09c-.39,0-.82,0-1.28,0h-3.32V428h4.42c.29,0,.55,0,.77,0s.47,0,.75-.07a3.79,3.79,0,0,0,1.51-.49,4.16,4.16,0,0,0,1.13-1,4.39,4.39,0,0,0,.7-1.32A4.8,4.8,0,0,0,1287.64,423.64Z" transform="translate(-222.01 -101)"/><path class="cls-1" d="M1345.82,413a1.12,1.12,0,0,1,.28-.8,1,1,0,0,1,.78-.3h23.83a1.07,1.07,0,0,1,.82.31,1.2,1.2,0,0,1,.28.84V419a1.27,1.27,0,0,1-.28.78,1,1,0,0,1-.84.37h-15.57v6h12a1.31,1.31,0,0,1,.76.21.84.84,0,0,1,.3.72v5.19a1,1,0,0,1-.27.65.93.93,0,0,1-.77.31h-12v6.15h16.14a1,1,0,0,1,1.08,1.1v6a.59.59,0,0,1-.19.43c-.06.45-.39.67-1,.67h-24.29a1.12,1.12,0,0,1-.77-.25,1,1,0,0,1-.29-.78Z" transform="translate(-222.01 -101)"/><path class="cls-1" d="M1490,412.8a.77.77,0,0,1,.16-.31,1.89,1.89,0,0,1,.32-.31,1.86,1.86,0,0,1,.41-.23,1.24,1.24,0,0,1,.41-.08h6.15a1,1,0,0,1,.7.25,4.23,4.23,0,0,1,.43.44l.6,1.37,12.61,32.53a.7.7,0,0,1-.07.78,1.17,1.17,0,0,1-.91.3h-6.9a1.55,1.55,0,0,1-.85-.2,1.35,1.35,0,0,1-.47-.69c-.32-.81-.63-1.63-.94-2.43l-.91-2.44H1488c-.3.81-.61,1.63-.92,2.44s-.62,1.62-.93,2.43a1.18,1.18,0,0,1-1.22.89h-7.09a1.14,1.14,0,0,1-.75-.24c-.21-.16-.24-.4-.11-.72Zm4.37,10.29c-.3.81-.61,1.69-.92,2.64s-.62,1.9-.93,2.86-.61,1.91-.92,2.84-.62,1.82-.93,2.64h7.38Z" transform="translate(-222.01 -101)"/><path class="cls-1" d="M1559.37,413a1.2,1.2,0,0,1,.26-.8,1,1,0,0,1,.79-.3h15.36a10.6,10.6,0,0,1,3.12.45,11.06,11.06,0,0,1,2.69,1.26,10.94,10.94,0,0,1,2.21,1.93,12.36,12.36,0,0,1,1.67,2.41,12.2,12.2,0,0,1,1,2.73,11.62,11.62,0,0,1-.42,7.12,11.68,11.68,0,0,1-2.22,3.68,11.21,11.21,0,0,1-3.46,2.6,10,10,0,0,1-4.47,1h-7.27v11.44c0,.69-.37,1-1.11,1h-7.14a1.09,1.09,0,0,1-.76-.25,1,1,0,0,1-.29-.78Zm18.09,10.53a4.56,4.56,0,0,0-.25-1.45,4,4,0,0,0-.74-1.28,3.9,3.9,0,0,0-1.16-.93,3.31,3.31,0,0,0-1.55-.36h-5.09v8h5.09a3.5,3.5,0,0,0,1.56-.35,3.58,3.58,0,0,0,1.16-.9,4,4,0,0,0,.73-1.28A4.64,4.64,0,0,0,1577.46,423.5Z" transform="translate(-222.01 -101)"/><path class="cls-1" d="M1635.43,412.92a1.1,1.1,0,0,1,.26-.74,1,1,0,0,1,.79-.31h7.07a1.28,1.28,0,0,1,.76.29.86.86,0,0,1,.41.76v33.57q0,1-1.17,1.05h-7.07a.93.93,0,0,1-1-1.05Z" transform="translate(-222.01 -101)"/></svg>